<svg xmlns="http://www.w3.org/2000/svg" xmlns:xlink="http://www.w3.org/1999/xlink" version="1.1" x="0px" y="0px" viewBox="0 0 84.863 112.5" enable-background="new 0 0 84.863 90" xml:space="preserve"><path d="M72.158,61.501V22.412c0-3.862-3.129-6.996-6.992-6.996c-1.42,0.001-2.727,0.439-3.828,1.163v-4.447  c0-3.864-3.133-6.994-6.996-6.996c-1.527,0.001-2.938,0.495-4.088,1.327c-0.822-2.949-3.521-5.113-6.73-5.113  c-3.861,0.001-6.991,3.131-6.993,6.997v1.201c-1.102-0.725-2.408-1.162-3.825-1.164c-3.864,0.002-6.995,3.131-6.997,6.995v22.014  c-0.898-1.271-2.475-2.286-4.441-2.26c-1.185,0.002-2.474,0.322-3.908,0.975c-0.479,0.218-0.801,0.677-0.843,1.203  c0,0-0.004,0.05-0.028,0.224c-0.17,1.214-1.236,7.072-6.974,14.417C9.289,52.24,9.182,52.6,9.212,52.965  c0.008,0.063,0.745,9.061,3.72,18.184c1.494,4.564,3.536,9.17,6.437,12.739C22.241,87.438,26.125,90,30.989,90h0.029  c0.094-0.002,0.144-0.002,0.158-0.002L56.102,90c8.869-0.002,16.058-7.189,16.058-16.055V61.52c0-0.007,0.002-0.013,0.002-0.019  H72.158z M25.708,49.645v8.983l-1.17-0.347c-0.121-0.121-0.456-0.542-0.479-1.952C24.055,55.018,24.427,52.877,25.708,49.645z   M56.102,87.102c0,0-25.046,0.002-25.083,0.002c-3.824-0.014-6.827-1.912-9.401-5.047c-3.836-4.688-6.294-12.068-7.696-18.238  c-0.707-3.088-1.162-5.872-1.442-7.881c-0.168-1.205-0.27-2.121-0.326-2.662c5.289-6.932,6.744-12.676,7.125-14.828  c0.818-0.304,1.479-0.416,1.989-0.414c1.076,0.025,1.58,0.39,2.128,1.11c1.015,1.352,1.276,4.155,1.248,5.395  c0,0.149-0.002,0.274-0.004,0.371c-2.645,5.475-3.47,8.996-3.478,11.42c-0.072,3.228,1.769,4.526,2.212,4.623l3.373,1.009  c0.225,0.066,1.185,0.135,1.185,0.135s0.515,0.014,1.41,0.139c2.747,0.361,8.297,1.832,10.297,6.32  c0.244,0.53,0.77,0.844,1.316,0.844c0.204,0,0.409-0.043,0.605-0.136c0.727-0.334,1.045-1.194,0.71-1.921  c-1.874-4.04-5.534-6.047-8.567-7.058c-2.214-0.733-4.156-0.972-5.095-1.048V15.379c0.004-2.263,1.835-4.092,4.097-4.096  c1.746-0.004,3.237,1.096,3.826,2.638c0,0-0.001,31.867-0.001,31.881c-0.003,0.802,0.64,1.453,1.44,1.457  c0.8,0.005,1.454-0.641,1.458-1.442V8.347c0.004-2.265,1.835-4.094,4.095-4.098c2.263,0.004,4.093,1.833,4.097,4.098v39.627  c0,0.799,0.649,1.449,1.449,1.449c0.801,0,1.45-0.65,1.45-1.449h-0.002v-37.3c0.59-1.543,2.076-2.641,3.824-2.639  c2.264,0.004,4.094,1.835,4.098,4.097v37.354c0,0.799,0.648,1.45,1.449,1.45s1.451-0.651,1.451-1.45h-0.002V20.95  c0.592-1.54,2.08-2.637,3.828-2.635c2.262,0.004,4.09,1.834,4.094,4.097v39.093v12.44C69.246,81.21,63.369,87.088,56.102,87.102z"/></svg>