<svg xmlns="http://www.w3.org/2000/svg" xmlns:xlink="http://www.w3.org/1999/xlink" version="1.1" x="0px" y="0px" viewBox="0 0 84.863 112.5" enable-background="new 0 0 84.863 90" xml:space="preserve"><path d="M72.027,35.938c-0.002-3.866-3.133-6.998-6.996-6.998c-1.447,0.001-2.779,0.454-3.894,1.205  c-0.452-3.426-3.377-6.071-6.928-6.073c-1.529,0.001-2.938,0.496-4.09,1.328c-0.822-2.948-3.521-5.113-6.731-5.113  c-3.34,0.002-6.129,2.34-6.825,5.477c-0.06,0.359-0.03,0.281-0.044,0.442c-0.011,0.372-0.019,1.197-0.023,2.34  c-1.121-0.765-2.467-1.226-3.928-1.227c-3.342,0.004-6.129,2.343-6.824,5.476l-0.034,0.313v4.294  c-0.894-1.272-2.47-2.297-4.443-2.271c-1.185,0.003-2.474,0.322-3.907,0.974c-0.479,0.22-0.802,0.678-0.844,1.203  c0,0-0.002,0.052-0.026,0.226c-0.171,1.213-1.239,7.074-6.975,14.419c-0.226,0.288-0.333,0.648-0.303,1.012  c0.008,0.063,0.746,8.993,3.722,18.049c1.494,4.532,3.538,9.105,6.438,12.649c2.877,3.534,6.771,6.076,11.645,6.067  c0.094-0.002,0.144-0.002,0.16-0.002l0.377,0.004c0.941,0.174,1.912,0.269,2.906,0.267L56.105,90  c8.866-0.002,16.055-7.189,16.055-16.059L72.027,35.938z M61.207,34.502c0.584-1.551,2.068-2.664,3.824-2.664v0.002  c2.262,0.004,4.092,1.834,4.096,4.099v9.467c0,0.256-0.027,0.512-0.074,0.771v0.002c-0.361,1.887-2.024,3.323-4.021,3.32  c-1.158,0.001-2.199-0.482-2.943-1.256c-0.326-0.339-0.588-0.736-0.783-1.171c-0.034-0.078-0.067-0.156-0.098-0.237  c-0.021-0.057-0.053-0.111-0.07-0.17c0-0.001,0-0.001,0-0.002c-0.133-0.404-0.202-0.822-0.204-1.258l0.002-9.467  c-0.002-0.259,0.028-0.526,0.077-0.795c0.029-0.152,0.072-0.307,0.125-0.471C61.154,34.614,61.186,34.561,61.207,34.502z   M54.201,26.971h0.01c2.262,0.004,4.094,1.836,4.098,4.098v18.664c-0.004,1.414-0.719,2.658-1.809,3.396  c-0.652,0.44-1.441,0.699-2.289,0.701c-1.383,0.002-2.604-0.688-3.346-1.741c-0.211-0.302-0.381-0.636-0.506-0.99  c-0.015-0.037-0.033-0.072-0.047-0.111c-0.127-0.396-0.197-0.816-0.199-1.252l0.002-18.665c0-0.441,0.07-0.86,0.199-1.265  c0.016-0.043,0.037-0.084,0.053-0.127C50.936,28.107,52.434,26.971,54.201,26.971z M39.41,26.677  c0.004-0.167,0.006-0.298,0.008-0.382V26.29c0.445-1.782,2.056-3.108,3.972-3.106c2.261,0.003,4.091,1.832,4.097,4.091  c0,0.063-0.047,23.252-0.035,23.61c0.004,0.178,0.01,0.324,0.018,0.448c0.008,0.053,0.01,0.085,0.012,0.118  c-0.002,0.025-0.008,0.05-0.01,0.076c-0.008,0.168-0.029,0.332-0.057,0.496c-0.012,0.076-0.016,0.156-0.033,0.231  c-0.041,0.187-0.104,0.362-0.172,0.538c-0.027,0.071-0.045,0.146-0.074,0.217c-0.074,0.166-0.168,0.318-0.264,0.473  c-0.041,0.068-0.074,0.144-0.119,0.209c-0.098,0.141-0.213,0.266-0.326,0.392c-0.061,0.065-0.111,0.14-0.176,0.202  c-0.115,0.111-0.246,0.206-0.373,0.305c-0.078,0.061-0.148,0.129-0.229,0.184c-0.131,0.086-0.273,0.151-0.414,0.223  c-0.095,0.048-0.181,0.104-0.275,0.146c-0.15,0.063-0.314,0.101-0.474,0.146c-0.096,0.026-0.187,0.065-0.284,0.086  c-0.244,0.049-0.498,0.072-0.756,0.076c-0.019,0-0.035,0.005-0.055,0.005c-0.152-0.001-0.298-0.029-0.445-0.047  c-2.015-0.227-3.5-1.896-3.516-4.049C39.428,51.333,39.406,27.013,39.41,26.677z M28.609,33.283c0.459-1.76,2.057-3.069,3.961-3.065  c1.747-0.002,3.234,1.095,3.826,2.634v15.606c-0.031,0.082-0.064,0.163-0.101,0.243c-0.039,0.087-0.077,0.174-0.122,0.258  c-0.052,0.1-0.113,0.191-0.173,0.284c-0.054,0.082-0.104,0.166-0.164,0.243c-0.064,0.087-0.137,0.166-0.208,0.246  c-0.066,0.074-0.129,0.151-0.2,0.222c-0.077,0.075-0.161,0.142-0.243,0.212c-0.076,0.063-0.149,0.13-0.23,0.188  c-0.089,0.063-0.185,0.117-0.279,0.174c-0.083,0.052-0.164,0.105-0.251,0.15c-0.102,0.053-0.211,0.094-0.319,0.137  c-0.086,0.035-0.17,0.076-0.26,0.104c-0.124,0.042-0.254,0.067-0.383,0.097c-0.079,0.018-0.156,0.043-0.237,0.057  c-0.202,0.033-0.41,0.048-0.621,0.05c-0.011,0-0.022,0.003-0.033,0.003c-0.242,0-0.479-0.021-0.708-0.063  c-0.07-0.012-0.135-0.037-0.204-0.053c-0.157-0.035-0.313-0.07-0.463-0.124c-0.086-0.03-0.167-0.075-0.251-0.11  c-0.123-0.056-0.249-0.104-0.365-0.17c-0.09-0.051-0.17-0.113-0.256-0.17c-0.101-0.066-0.206-0.129-0.3-0.205  c-0.084-0.067-0.159-0.146-0.238-0.222c-0.083-0.077-0.17-0.153-0.248-0.237c-0.075-0.084-0.138-0.176-0.206-0.264  c-0.068-0.089-0.14-0.175-0.201-0.271c-0.061-0.097-0.11-0.197-0.163-0.298c-0.052-0.1-0.108-0.195-0.154-0.299  c-0.044-0.104-0.077-0.216-0.113-0.324c-0.032-0.096-0.066-0.19-0.091-0.289V33.283H28.609z M25.711,49.643v8.983l-1.169-0.346  c-0.122-0.121-0.457-0.546-0.478-1.954C24.058,55.016,24.43,52.875,25.711,49.643z M69.262,73.941  C69.25,81.209,63.369,87.088,56.105,87.1H34.463c-0.85,0-1.68-0.08-2.487-0.238l-0.257-0.024l-0.481-0.006  c-0.033-0.002-0.063-0.002-0.091-0.002c-0.055,0-0.099,0.002-0.125,0.002c-3.83-0.01-6.833-1.896-9.404-5.008  c-3.835-4.649-6.292-11.972-7.692-18.095c-0.706-3.061-1.163-5.826-1.442-7.814c-0.167-1.194-0.27-2.104-0.325-2.639  c5.288-6.935,6.744-12.68,7.125-14.832c0.818-0.303,1.479-0.416,1.988-0.416c1.077,0.028,1.58,0.394,2.128,1.113  c1.015,1.351,1.278,4.156,1.249,5.397c0,0.15-0.001,0.273-0.004,0.372c-2.645,5.472-3.471,8.994-3.479,11.415  c-0.072,3.229,1.771,4.528,2.214,4.625l3.373,1.006c0.214,0.063,3.17,0.134,5.469,0.854c2.622,0.819,5.387,2.379,6.746,5.338  c0.243,0.527,0.769,0.842,1.315,0.842c0.204,0,0.409-0.043,0.605-0.135c0.727-0.336,1.043-1.194,0.709-1.922  c-1.858-4.013-5.492-5.951-8.514-6.891c-1.787-0.555-3.402-0.785-4.472-0.881V52.79c0.096,0.065,0.202,0.115,0.301,0.177  c0.125,0.078,0.251,0.153,0.382,0.223c0.202,0.108,0.413,0.201,0.626,0.289c0.131,0.056,0.259,0.112,0.393,0.158  c0.245,0.083,0.499,0.146,0.755,0.201c0.113,0.025,0.223,0.061,0.339,0.08c0.379,0.063,0.766,0.102,1.163,0.104l0,0  c0.026,0,0.053-0.006,0.08-0.006c0.352-0.005,0.699-0.031,1.037-0.086c0.114-0.019,0.222-0.055,0.334-0.078  c0.245-0.053,0.49-0.104,0.725-0.181c0.129-0.042,0.249-0.103,0.375-0.151c0.208-0.08,0.416-0.16,0.613-0.261  c0.129-0.065,0.249-0.146,0.374-0.22c0.146-0.087,0.298-0.161,0.437-0.257c0.563,2.709,2.695,4.84,5.403,5.411  c0.018,0.004,0.036,0.008,0.054,0.011c0.199,0.042,0.402,0.071,0.608,0.096c0.027,0.003,0.056,0.009,0.084,0.013  c0.229,0.021,0.462,0.037,0.698,0.037c0.02,0,0.037-0.005,0.057-0.005c0.269-0.003,0.531-0.021,0.792-0.054  c0.091-0.011,0.179-0.025,0.269-0.041c0.2-0.032,0.398-0.073,0.592-0.122c0.082-0.021,0.164-0.038,0.244-0.063  c0.262-0.074,0.519-0.162,0.767-0.268c0.032-0.013,0.061-0.029,0.092-0.043c0.223-0.098,0.436-0.207,0.645-0.326  c0.068-0.039,0.138-0.08,0.203-0.121c0.183-0.111,0.355-0.23,0.525-0.357c0.051-0.038,0.102-0.074,0.151-0.112  c0.216-0.171,0.42-0.353,0.613-0.546c0.023-0.021,0.041-0.045,0.063-0.066c0.17-0.175,0.33-0.359,0.481-0.553  c0.041-0.052,0.08-0.104,0.119-0.158c0.141-0.188,0.271-0.385,0.393-0.588c0.017-0.025,0.035-0.049,0.052-0.076  c0.18,0.168,0.369,0.322,0.563,0.472c0.041,0.028,0.082,0.056,0.123,0.085c0.254,0.184,0.521,0.353,0.797,0.499  c0.021,0.011,0.037,0.022,0.056,0.032c0.289,0.15,0.592,0.274,0.899,0.385c0.058,0.021,0.113,0.041,0.172,0.06  c0.304,0.099,0.617,0.179,0.938,0.234c0.062,0.01,0.123,0.017,0.185,0.026c0.327,0.049,0.661,0.08,1.004,0.082  c0.008,0,0.018,0.002,0.026,0.002c0.051,0,0.099-0.007,0.146-0.008c0.174-0.004,0.348-0.011,0.518-0.025  c0.092-0.01,0.183-0.024,0.272-0.037c0.128-0.018,0.257-0.033,0.382-0.059c0.096-0.019,0.19-0.041,0.287-0.063  c0.114-0.027,0.231-0.056,0.348-0.089c0.096-0.028,0.188-0.06,0.281-0.09c0.112-0.037,0.223-0.078,0.334-0.121  c0.09-0.036,0.178-0.073,0.266-0.111c0.111-0.05,0.22-0.104,0.326-0.157c0.082-0.041,0.166-0.083,0.246-0.128  c0.112-0.063,0.223-0.132,0.332-0.201c0.067-0.044,0.141-0.085,0.207-0.131c0.157-0.107,0.313-0.224,0.461-0.345  c0.047-0.038,0.092-0.079,0.139-0.118c0.123-0.107,0.246-0.217,0.363-0.332c0.059-0.057,0.113-0.12,0.17-0.181  c0.088-0.093,0.176-0.186,0.258-0.282c0.06-0.069,0.115-0.143,0.172-0.214c0.072-0.095,0.146-0.189,0.216-0.287  c0.053-0.077,0.104-0.156,0.155-0.235c0.064-0.101,0.127-0.199,0.187-0.303c0.047-0.082,0.094-0.165,0.137-0.249  c0.057-0.106,0.107-0.216,0.158-0.327c0.039-0.083,0.078-0.167,0.113-0.253c0.049-0.122,0.094-0.247,0.137-0.372  c0.024-0.078,0.057-0.154,0.08-0.234c0.063-0.2,0.115-0.404,0.158-0.612c0.141,0.097,0.295,0.172,0.44,0.259  c0.123,0.072,0.242,0.151,0.369,0.217c0.194,0.1,0.401,0.178,0.608,0.26c0.127,0.05,0.248,0.108,0.38,0.152  c0.229,0.075,0.473,0.125,0.715,0.178c0.114,0.023,0.227,0.063,0.344,0.08c0.363,0.059,0.734,0.092,1.115,0.092  c0.377,0,0.744-0.035,1.104-0.094c0.031-0.003,0.062-0.006,0.091-0.011c0.344-0.06,0.676-0.147,0.998-0.254  c0.043-0.015,0.086-0.024,0.127-0.041c0.313-0.108,0.612-0.243,0.903-0.394c0.045-0.024,0.09-0.047,0.133-0.07  c0.285-0.156,0.558-0.332,0.816-0.524c0.018-0.014,0.041-0.024,0.059-0.039v22.97H69.262z"/></svg>