<svg xmlns="http://www.w3.org/2000/svg" xmlns:xlink="http://www.w3.org/1999/xlink" version="1.1" x="0px" y="0px" viewBox="0 0 84.863 112.5" enable-background="new 0 0 84.863 90" xml:space="preserve"><path d="M66.143,36.478L66.143,36.478c-0.33-0.046-0.657-0.071-0.983-0.071c-1.08,0.001-2.113,0.259-3.041,0.711  c0-0.017,0.004-0.035,0.004-0.052c0-3.437-2.527-6.425-6.021-6.919c-0.326-0.045-0.651-0.068-0.979-0.068  c-1.117,0.001-2.178,0.279-3.129,0.758l2.982-22.882c0.045-0.317,0.065-0.646,0.065-0.967c0-3.438-2.527-6.424-6.021-6.919  C48.695,0.024,48.369,0,48.043,0c-3.438,0-6.431,2.524-6.92,6.028l-5,33.249L27.42,7.389c-0.837-3.122-3.661-5.184-6.755-5.184  c-0.598,0-1.208,0.077-1.815,0.24c-3.12,0.842-5.182,3.662-5.18,6.754c0,0.599,0.078,1.209,0.241,1.816l5.846,24.242  c-0.594,0.104-1.214,0.276-1.866,0.526c-0.258,0.098-0.515,0.196-0.782,0.318c-0.479,0.22-0.801,0.677-0.843,1.203  c0,0-0.004,0.052-0.028,0.227c-0.17,1.212-1.238,7.071-6.975,14.416v0.002c-0.106,0.136-0.183,0.291-0.234,0.452  c-0.003,0.012-0.01,0.022-0.015,0.035c-0.045,0.157-0.061,0.321-0.051,0.489c0,0.013-0.005,0.022-0.004,0.034  c0.008,0.063,0.745,9.061,3.721,18.184c1.494,4.565,3.537,9.172,6.437,12.742C21.99,87.439,25.876,90,30.746,90h0.022  c0.08-0.002,0.138-0.002,0.178-0.002L55.852,90c8.869-0.002,16.058-7.193,16.058-16.061l0.186-29.566  c0.045-0.332,0.068-0.659,0.066-0.98C72.16,39.958,69.633,36.974,66.143,36.478z M55.117,32.978h0.006  c0.188,0,0.381,0.013,0.576,0.042c2.045,0.283,3.525,2.045,3.525,4.048c0,0.195-0.015,0.387-0.039,0.579l-0.416,2.96L57.125,52.3  l-0.199,1.427l-0.338,2.402c-0.004,0.03-0.016,0.057-0.02,0.085c-0.324,1.998-2.058,3.441-4.029,3.438  c-0.193,0-0.387-0.01-0.576-0.036c-1.793-0.251-3.146-1.632-3.457-3.319c-0.002-0.013-0.006-0.025-0.01-0.039  c-0.041-0.232-0.061-0.465-0.061-0.706c0-0.183,0.012-0.368,0.039-0.561l0.893-6.349l1.127-8.021l0.58-4.117  c0.055-0.393,0.172-0.76,0.326-1.104c0.016-0.038,0.026-0.079,0.045-0.115C52.115,33.901,53.547,32.978,55.117,32.978z   M24.291,58.277c-0.015-0.016-0.034-0.035-0.054-0.061c-0.053-0.068-0.121-0.18-0.188-0.347c-0.011-0.03-0.022-0.056-0.035-0.089  c-0.001-0.002-0.002-0.008-0.003-0.01c-0.1-0.299-0.187-0.752-0.197-1.447c0-0.081,0.006-0.176,0.008-0.262  c0.003-0.105,0.005-0.209,0.013-0.323c0.006-0.095,0.02-0.199,0.029-0.3c0.013-0.135,0.027-0.269,0.046-0.412  c0.015-0.108,0.035-0.229,0.054-0.344c0.025-0.153,0.053-0.311,0.085-0.477c0.025-0.127,0.053-0.257,0.082-0.391  c0.016-0.068,0.035-0.145,0.051-0.215l0.88,4.902L24.291,58.277z M69.01,73.939C69,81.206,63.117,87.087,55.852,87.102H30.966  c-0.074,0-0.146,0.002-0.198,0.002c-3.826-0.013-6.83-1.912-9.403-5.047c-3.836-4.688-6.293-12.069-7.695-18.24  c-0.707-3.088-1.164-5.871-1.442-7.881c-0.168-1.207-0.27-2.123-0.326-2.662c0.093-0.123,0.176-0.241,0.268-0.363  c0.19-0.253,0.378-0.508,0.558-0.758c0.127-0.178,0.248-0.351,0.37-0.525c0.174-0.251,0.349-0.5,0.514-0.747  c0.111-0.168,0.218-0.334,0.326-0.5c0.161-0.247,0.322-0.494,0.473-0.737c0.098-0.158,0.19-0.313,0.284-0.471  c0.147-0.245,0.296-0.488,0.434-0.729c0.085-0.147,0.165-0.291,0.246-0.437c0.136-0.244,0.271-0.485,0.397-0.721  c0.072-0.138,0.139-0.267,0.208-0.4c0.124-0.237,0.248-0.478,0.362-0.709c0.063-0.123,0.117-0.243,0.176-0.364  c0.112-0.234,0.225-0.469,0.328-0.694c0.05-0.11,0.095-0.217,0.145-0.326c0.101-0.23,0.203-0.459,0.295-0.68  c0.041-0.098,0.077-0.19,0.116-0.286c0.091-0.225,0.183-0.448,0.265-0.662c0.032-0.083,0.06-0.163,0.09-0.245  c0.082-0.218,0.163-0.436,0.235-0.643c0.023-0.068,0.044-0.131,0.068-0.198c0.072-0.212,0.144-0.422,0.207-0.622  c0.019-0.058,0.033-0.11,0.051-0.167c0.063-0.201,0.124-0.4,0.178-0.587c0.013-0.044,0.022-0.083,0.035-0.126  c0.054-0.19,0.105-0.378,0.15-0.553c0.011-0.044,0.021-0.082,0.03-0.125c0.042-0.166,0.083-0.33,0.117-0.48  c0.016-0.067,0.027-0.124,0.041-0.187c0.025-0.115,0.052-0.233,0.073-0.336c0.033-0.164,0.061-0.314,0.086-0.449  c0.524-0.195,0.978-0.305,1.374-0.363c0.011-0.001,0.023-0.002,0.034-0.004c0.208-0.029,0.406-0.048,0.579-0.048  c0.339,0,0.615,0.048,0.854,0.124c0.372,0.123,0.671,0.317,0.942,0.594c0.114,0.116,0.224,0.243,0.331,0.391  c0.292,0.389,0.516,0.904,0.695,1.461c0.442,1.382,0.577,3.055,0.556,3.938c0,0.148-0.002,0.271-0.004,0.368v0.004  c-0.077,0.159-0.141,0.304-0.214,0.458c-0.156,0.331-0.313,0.664-0.458,0.979c-0.3,0.664-0.563,1.286-0.809,1.889  c-1.477,3.636-1.988,6.203-1.993,8.092c-0.007,0.336,0.017,0.64,0.047,0.935c0.222,2.186,1.365,3.278,1.933,3.595  c0.093,0.051,0.169,0.08,0.225,0.094l0.047,0.016l0.083,0.03l2.764,0.817l0.481,0.143c0.129,0.04,0.261,0.057,0.393,0.059  c0.007,0,0.015,0.002,0.021,0.002c0.026,0,0.05-0.01,0.076-0.012c0.051-0.003,0.102-0.007,0.151-0.015  c0.444,0.01,2.527,0.1,4.832,0.819c2.619,0.819,5.386,2.379,6.744,5.336c0.244,0.532,0.769,0.846,1.318,0.846  c0.202,0,0.407-0.043,0.604-0.135c0.729-0.336,1.044-1.195,0.709-1.922c-1.858-4.012-5.494-5.953-8.513-6.891  c-1.92-0.596-3.646-0.816-4.706-0.9l-0.884-4.926l-0.385-2.146l-0.9-3.603c0.131-0.306,0.254-0.602,0.402-0.927  c0.229-0.502,0.471-1.022,0.735-1.563l0.003-0.008c0.011-0.021,0.022-0.044,0.033-0.067c0.084-0.175,0.13-0.349,0.144-0.541  c0.001-0.021,0.012-0.196,0.017-0.492c0.002-0.098,0.003-0.21,0.003-0.333l0,0c-0.005-0.28-0.016-0.632-0.035-1.013  c-0.009-0.174-0.02-0.347-0.034-0.537c-0.016-0.201-0.034-0.41-0.059-0.626c-0.169-1.513-0.586-3.343-1.655-4.899  c-0.193-0.274-0.424-0.533-0.673-0.78c-0.555-0.552-1.239-1.016-2.064-1.282L16.718,10.3c-0.104-0.395-0.151-0.748-0.151-1.1  c0.002-1.806,1.209-3.468,3.039-3.955c0.354-0.098,0.708-0.141,1.059-0.141c1.808,0,3.47,1.207,3.958,3.04l9.513,34.858l0.651,2.387  c0.041,0.15,0.109,0.283,0.19,0.407c0.314,0.479,0.889,0.737,1.473,0.629c0.021,0.004,0.04,0.013,0.061,0.017  c0.792,0.117,1.529-0.428,1.649-1.218l0.129-0.862l0.51-3.395l5.189-34.524c0.285-2.063,2.048-3.543,4.054-3.543  c0.188,0,0.379,0.014,0.574,0.04c2.047,0.287,3.526,2.047,3.526,4.051c-0.002,0.194-0.014,0.388-0.041,0.578l-6.498,47.017  c-0.045,0.322-0.067,0.647-0.065,0.968c-0.002,0.404,0.033,0.809,0.102,1.202c0.5,2.915,2.835,5.296,5.919,5.731  c0.329,0.045,0.659,0.067,0.979,0.067c2.965,0,5.59-1.887,6.574-4.646c1.01,0.934,2.295,1.589,3.76,1.796  c0.317,0.048,0.633,0.067,0.938,0.067h0.043c2.019,0,3.863-0.885,5.154-2.31v16.478H69.01z M69.223,43.972l-0.244,1.736  l-0.139,0.989l-0.678,4.818l-0.258,1.836c-0.033,0.254-0.096,0.502-0.181,0.752c-0.559,1.642-2.129,2.776-3.868,2.772  c-0.195,0-0.388-0.011-0.578-0.039c-1.74-0.243-3.058-1.555-3.416-3.172c-0.01-0.047-0.027-0.09-0.035-0.136  c-0.004-0.016-0.01-0.028-0.012-0.043c-0.045-0.24-0.063-0.479-0.063-0.719c0-0.179,0.012-0.362,0.039-0.556l0.846-6.01l0.474-3.372  c0.035-0.26,0.1-0.521,0.188-0.768c0.051-0.152,0.115-0.301,0.186-0.448c0.029-0.058,0.064-0.108,0.097-0.163  c0.701-1.294,2.063-2.146,3.567-2.146h0.013c0.188,0,0.381,0.012,0.576,0.04h0.002c2.043,0.286,3.524,2.046,3.524,4.048  C69.262,43.587,69.248,43.78,69.223,43.972z"/></svg>